<svg width="1200" height="420" viewBox="0 0 1200 420" fill="none" xmlns="http://www.w3.org/2000/svg" role="img" aria-labelledby="title description">
  <title id="title">Md. Rakib - RakibHQ</title>
  <desc id="description">Independent builder creating Web3 products, AI systems, and open source software.</desc>

  <defs>
    <pattern id="grid" width="40" height="40" patternUnits="userSpaceOnUse">
      <path d="M40 0H0V40" stroke="#23303B" stroke-width="1" opacity="0.46"/>
    </pattern>
    <clipPath id="frame">
      <rect x="18" y="18" width="1164" height="384" rx="8"/>
    </clipPath>
  </defs>

  <rect width="1200" height="420" rx="8" fill="#090E13"/>
  <g clip-path="url(#frame)">
    <rect x="18" y="18" width="1164" height="384" fill="url(#grid)"/>
    <path d="M18 90H1182" stroke="#2A3742" stroke-width="1"/>
    <path d="M784 18V402" stroke="#2A3742" stroke-width="1"/>

    <rect x="54" y="50" width="12" height="12" rx="2" fill="#61D6A6"/>
    <text x="78" y="61" fill="#91A0AD" font-family="Segoe UI, Helvetica, Arial, sans-serif" font-size="15">RAKIBHQ / BUILDER PROFILE</text>
    <text x="1115" y="61" text-anchor="end" fill="#91A0AD" font-family="Segoe UI, Helvetica, Arial, sans-serif" font-size="15">01</text>

    <text x="56" y="166" fill="#F6F8FA" font-family="Segoe UI, Helvetica, Arial, sans-serif" font-size="76" font-weight="700">MD. RAKIB</text>
    <text x="58" y="214" fill="#F5B942" font-family="Segoe UI, Helvetica, Arial, sans-serif" font-size="24" font-weight="600">INDEPENDENT BUILDER</text>
    <text x="58" y="258" fill="#B5C0CA" font-family="Segoe UI, Helvetica, Arial, sans-serif" font-size="21">Web3 products, AI systems, and open source software.</text>

    <rect x="56" y="314" width="208" height="42" rx="6" fill="#111820" stroke="#34424E"/>
    <circle cx="80" cy="335" r="5" fill="#61D6A6"/>
    <text x="96" y="341" fill="#DDE4EA" font-family="Segoe UI, Helvetica, Arial, sans-serif" font-size="16" font-weight="600">STATUS: SHIPPING</text>

    <text x="56" y="384" fill="#71808D" font-family="Segoe UI, Helvetica, Arial, sans-serif" font-size="14">RAKIBHQ.XYZ</text>

    <g opacity="0.96">
      <path d="M888 136L980 92L1080 153L1053 260L949 305L860 238L888 136Z" stroke="#43515D" stroke-width="2"/>
      <path d="M888 136L949 305M980 92L1053 260M1080 153L860 238M888 136L1053 260M980 92L860 238" stroke="#32404B" stroke-width="1.5"/>

      <circle cx="888" cy="136" r="11" fill="#61D6A6"/>
      <circle cx="980" cy="92" r="8" fill="#F5B942"/>
      <circle cx="1080" cy="153" r="10" fill="#61A9F8"/>
      <circle cx="1053" cy="260" r="8" fill="#F279B2"/>
      <circle cx="949" cy="305" r="10" fill="#F5B942"/>
      <circle cx="860" cy="238" r="8" fill="#61A9F8"/>

      <circle cx="971" cy="199" r="67" fill="#0D141B" stroke="#536371" stroke-width="2"/>
      <circle cx="971" cy="199" r="53" stroke="#2D3B46" stroke-width="1"/>
      <text x="971" y="193" text-anchor="middle" fill="#F6F8FA" font-family="Segoe UI, Helvetica, Arial, sans-serif" font-size="30" font-weight="700">R/HQ</text>
      <text x="971" y="222" text-anchor="middle" fill="#91A0AD" font-family="Segoe UI, Helvetica, Arial, sans-serif" font-size="13">BUILD / SHIP</text>
    </g>

    <path d="M1123 334H1164V375" stroke="#F5B942" stroke-width="3"/>
    <path d="M802 46V30H818" stroke="#61D6A6" stroke-width="3"/>
  </g>

  <rect x="18.5" y="18.5" width="1163" height="383" rx="7.5" stroke="#34424E"/>
</svg>
